<svg width="32" height="32" viewBox="0 0 32 32" fill="none" xmlns="http://www.w3.org/2000/svg">
<path d="M14.4677 29.3942L5.98617 25.4147C7.46915 25.8061 9.02764 25.7533 10.4643 25.2629L11.3085 24.9748L13.1594 24.1998L17.679 21.5259L18.3555 21.0612C20.6123 19.5112 22.7512 17.7998 24.7556 15.9404L26.189 14.1661C27.3302 12.7535 27.9092 10.9675 27.8181 9.14016L30.2935 18.028C30.2935 19.6422 29.831 21.2147 28.96 22.5613L28.5053 23.2642C26.592 25.5114 24.2691 27.3782 21.6548 28.7696L20.712 29.2714C20.5585 29.3531 20.3978 29.421 20.2318 29.4745L19.2509 29.7903C17.6786 30.2964 15.9568 30.1539 14.4677 29.3942Z" fill="url(#paint0_linear_193_41)"/>
<path d="M1.70849 10.3043L7.82204 2.98433C7.34353 3.63159 7.12086 4.43194 7.19698 5.23107L7.32413 6.56605L7.71067 8.48603L9.16748 14.1481L10.1561 17.632L12.126 24.6277C10.2678 25.5545 8.14 25.8576 6.10503 25.4726C4.16163 24.54 2.74274 22.7837 2.23869 20.6868L1.6672 18.3093L0.78262 13.4919C0.631097 12.3487 0.967022 11.1921 1.70849 10.3043Z" fill="url(#paint1_linear_193_41)"/>
<path d="M7.34637 6.67201L7.19894 5.25733C7.11668 4.46805 7.33023 3.66816 7.79983 3.00659C8.34632 2.39509 9.11537 2.01992 9.93181 1.96654L11.0051 1.89637C11.2169 1.88252 11.429 1.88347 11.6398 1.89921L11.7301 1.90596C15.0017 2.15021 18.2245 2.75594 21.3377 3.71173C21.7918 3.85114 22.2324 4.02722 22.6551 4.23821L24.4042 5.11121C26.0557 5.93552 27.2828 7.3855 27.8106 9.13651L27.8213 9.25027C27.9676 10.8042 27.5216 12.3727 26.5693 13.6537C24.42 12.475 22.1394 11.5339 19.7681 10.8472L16.995 10.0442L14.9295 9.55532C12.5743 8.99788 10.1691 8.64048 7.7403 8.48703L7.34637 6.67201Z" fill="url(#paint2_linear_193_41)"/>
<defs>
<linearGradient id="paint0_linear_193_41" x1="12.6815" y1="28.1959" x2="28.6912" y2="14.9559" gradientUnits="userSpaceOnUse">
<stop stop-color="#A662E6"/>
<stop offset="1" stop-color="#5ABEFF"/>
</linearGradient>
<linearGradient id="paint1_linear_193_41" x1="6.48196" y1="4.83714" x2="8.52405" y2="25.2229" gradientUnits="userSpaceOnUse">
<stop stop-color="#A661E2"/>
<stop offset="1" stop-color="#3E4190"/>
</linearGradient>
<linearGradient id="paint2_linear_193_41" x1="27.8233" y1="9.40442" x2="7.15386" y2="3.83012" gradientUnits="userSpaceOnUse">
<stop stop-color="#5DE7C8"/>
<stop offset="1" stop-color="#A661E2"/>
</linearGradient>
</defs>
</svg>
