<svg width="400" height="400" viewBox="0 0 400 400" fill="none" xmlns="http://www.w3.org/2000/svg">
<circle cx="200" cy="200" r="200" fill="white"/>
<path d="M187.742 307.178L119.889 275.339C131.753 278.47 144.221 278.048 155.715 274.124L162.468 271.819L177.275 265.618L213.432 244.225L218.844 240.507C236.898 228.106 254.009 214.413 270.044 199.536L281.511 185.341C290.642 174.038 295.273 159.749 294.545 145.128L314.348 216.239C314.348 229.154 310.648 241.735 303.679 252.51L300.042 258.133C284.736 276.113 266.153 291.049 245.237 302.181L237.696 306.195C236.468 306.849 235.182 307.393 233.854 307.82L226.008 310.347C213.429 314.397 199.654 313.256 187.742 307.178Z" fill="url(#paint0_linear_205_8)"/>
<path d="M85.6683 154.445L134.576 95.8788C130.748 101.057 128.967 107.461 129.576 113.854L130.593 124.536L133.685 139.897L145.34 185.199L153.249 213.073L169.008 269.044C154.143 276.459 137.12 278.884 120.84 275.804C105.293 268.342 93.9422 254.291 89.9101 237.516L85.3376 218.492L78.261 179.948C77.0488 170.801 79.7363 161.548 85.6683 154.445Z" fill="url(#paint1_linear_205_8)"/>
<path d="M130.771 125.382L129.591 114.063C128.933 107.748 130.642 101.348 134.399 96.0552C138.771 91.1627 144.923 88.1611 151.455 87.734L160.041 87.1726C161.735 87.0618 163.432 87.0694 165.118 87.1953L165.841 87.2493C192.014 89.2035 217.796 94.0499 242.702 101.697C246.335 102.812 249.859 104.221 253.241 105.909L267.232 112.893C280.445 119.489 290.262 131.09 294.485 145.1L294.571 146.01C295.741 158.443 292.173 170.992 284.554 181.241C267.36 171.811 249.115 164.281 230.145 158.787L207.96 152.362L191.436 148.451C172.594 143.991 153.353 141.131 133.922 139.903L130.771 125.382Z" fill="url(#paint2_linear_205_8)"/>
<defs>
<linearGradient id="paint0_linear_205_8" x1="173.452" y1="297.591" x2="301.54" y2="191.673" gradientUnits="userSpaceOnUse">
<stop stop-color="#A662E6"/>
<stop offset="1" stop-color="#5ABEFF"/>
</linearGradient>
<linearGradient id="paint1_linear_205_8" x1="123.856" y1="110.703" x2="140.196" y2="273.806" gradientUnits="userSpaceOnUse">
<stop stop-color="#A661E2"/>
<stop offset="1" stop-color="#3E4190"/>
</linearGradient>
<linearGradient id="paint2_linear_205_8" x1="294.587" y1="147.243" x2="129.229" y2="102.653" gradientUnits="userSpaceOnUse">
<stop stop-color="#5DE7C8"/>
<stop offset="1" stop-color="#A661E2"/>
</linearGradient>
</defs>
</svg>
