<svg width="4143" height="2292" viewBox="0 0 4143 2292" fill="none" xmlns="http://www.w3.org/2000/svg">
<path d="M987.8 1445.5C972.699 1447.52 958.955 1443.76 946.566 1434.2C934.064 1425.3 926.664 1413.1 924.368 1397.62L906.057 1267.73C900.087 1227.48 905.396 1187.87 921.983 1148.91C930.085 1129.56 941.513 1111.31 956.268 1094.14L880.785 986.339C871.952 973.725 868.72 959.752 871.088 944.421C873.724 929.472 881.54 917.447 894.538 908.347C907.152 899.514 921.125 896.281 936.456 898.649C951.673 901.667 963.697 909.484 972.53 922.099L1048.01 1029.9C1069.08 1022.56 1089.95 1018.19 1110.63 1016.82C1152.27 1014.44 1191.49 1022.86 1228.31 1042.09L1343.53 1104.12C1357.29 1111.57 1366.41 1122.56 1370.89 1137.09C1375.63 1152 1374.27 1166.34 1366.82 1180.1C1359.75 1193.6 1348.82 1202.39 1334.02 1206.49C1319.11 1211.23 1304.91 1210.06 1291.41 1202.99L1175.62 1141.36C1157.27 1131.43 1137.95 1127.01 1117.65 1128.12C1097.61 1129.62 1079.19 1136.25 1062.37 1148.03C1045.16 1160.08 1032.44 1175.26 1024.18 1193.57C1016.19 1212.26 1013.73 1231.93 1016.79 1252.58L1035.1 1382.47C1037.13 1397.57 1033.56 1411.18 1024.38 1423.3C1015.1 1436.07 1002.9 1443.47 987.8 1445.5Z" fill="url(#paint0_linear_85_6)"/>
<path d="M973.148 2105.31L402.65 1820.33C502.137 1848.28 607.885 1844.33 705.01 1809.04L760.646 1788.82L852.489 1747.88C874.233 1738.18 895.256 1726.95 915.399 1714.26L1189.15 1541.82L1432.77 1363.68C1452.66 1349.13 1471.45 1333.13 1488.99 1315.81L1660.07 1146.83C1663.45 1143.49 1666.59 1139.92 1669.46 1136.13L1771.03 1002.28C1841.85 908.947 1877.65 793.705 1872.17 676.669L1871.15 654.817L2037.65 1291.32L2037.65 1328.35C2037.65 1419.9 2012.51 1509.7 1964.98 1587.94L1917.37 1666.32C1788.74 1827.17 1630.58 1961.99 1451.39 2063.53L1393.52 2096.32C1382.96 2102.3 1371.87 2107.29 1360.39 2111.23L1298.12 2132.57C1190.75 2169.37 1072.88 2159.48 973.148 2105.31Z" fill="url(#paint1_linear_85_6)"/>
<path d="M116.567 735.935L526.138 213.81C493.838 260.329 478.906 316.716 483.952 373.124L492.647 470.316L518.647 607.816L616.638 1013.31L683.138 1262.81L815.638 1763.81L811.747 1765.87C688.826 1831.14 547.082 1851.8 410.646 1824.31C279.803 1757.46 185.431 1635.93 153.072 1492.61L112.142 1311.31L52.6418 966.314C42.4041 884.071 65.4145 801.143 116.567 735.935Z" fill="url(#paint2_linear_85_6)"/>
<path d="M494.146 477.818L484.251 376.734C478.686 319.879 492.958 262.849 524.647 215.317C561.393 171.54 614.351 144.573 671.369 140.604L740.466 135.794C754.563 134.812 768.713 134.882 782.8 136.002L789.643 136.546C1009.21 153.999 1225.93 197.394 1435.28 265.826C1465.8 275.802 1495.4 288.393 1523.76 303.46L1635.26 362.718C1750.18 423.785 1835.19 529.104 1870.64 654.314L1871.34 662.191C1881.23 774.023 1851.42 885.766 1787.15 977.815C1642.62 893.428 1488.89 825.916 1328.96 776.608L1143.15 719.317L1004.75 684.441C846.002 644.438 683.982 618.788 520.643 607.801L494.146 477.818Z" fill="url(#paint3_linear_85_6)"/>
<path d="M987.8 1445.5C972.699 1447.52 958.955 1443.76 946.566 1434.2C934.064 1425.3 926.664 1413.1 924.368 1397.62L906.057 1267.73C900.087 1227.48 905.396 1187.87 921.983 1148.91C930.085 1129.56 941.513 1111.31 956.268 1094.14L880.785 986.339C871.952 973.725 868.72 959.752 871.088 944.421C873.724 929.472 881.54 917.447 894.538 908.347C907.152 899.514 921.125 896.281 936.456 898.649C951.673 901.667 963.697 909.484 972.53 922.099L1048.01 1029.9C1069.08 1022.56 1089.95 1018.19 1110.63 1016.82C1152.27 1014.44 1191.49 1022.86 1228.31 1042.09L1343.53 1104.12C1357.29 1111.57 1366.41 1122.56 1370.89 1137.09C1375.63 1152 1374.27 1166.34 1366.82 1180.1C1359.75 1193.6 1348.82 1202.39 1334.02 1206.49C1319.11 1211.23 1304.91 1210.06 1291.41 1202.99L1175.62 1141.36C1157.27 1131.43 1137.95 1127.01 1117.65 1128.12C1097.61 1129.62 1079.19 1136.25 1062.37 1148.03C1045.16 1160.08 1032.44 1175.26 1024.18 1193.57C1016.19 1212.26 1013.73 1231.93 1016.79 1252.58L1035.1 1382.47C1037.13 1397.57 1033.56 1411.18 1024.38 1423.3C1015.1 1436.07 1002.9 1443.47 987.8 1445.5Z" fill="url(#paint4_linear_85_6)"/>
<path d="M973.148 2105.31L402.65 1820.33C502.137 1848.28 607.885 1844.33 705.01 1809.04L760.646 1788.82L852.489 1747.88C874.233 1738.18 895.256 1726.95 915.399 1714.26L1189.15 1541.82L1432.77 1363.68C1452.66 1349.13 1471.45 1333.13 1488.99 1315.81L1660.07 1146.83C1663.45 1143.49 1666.59 1139.92 1669.46 1136.13L1771.03 1002.28C1841.85 908.947 1877.65 793.705 1872.17 676.669L1871.15 654.817L2037.65 1291.32L2037.65 1328.35C2037.65 1419.9 2012.51 1509.7 1964.98 1587.94L1917.37 1666.32C1788.74 1827.17 1630.58 1961.99 1451.39 2063.53L1393.52 2096.32C1382.96 2102.3 1371.87 2107.29 1360.39 2111.23L1298.12 2132.57C1190.75 2169.37 1072.88 2159.48 973.148 2105.31Z" fill="url(#paint5_linear_85_6)"/>
<path d="M116.567 735.935L526.138 213.81C493.838 260.329 478.906 316.716 483.952 373.124L492.647 470.316L518.647 607.816L616.638 1013.31L683.138 1262.81L815.638 1763.81L811.747 1765.87C688.826 1831.14 547.082 1851.8 410.646 1824.31C279.803 1757.46 185.431 1635.93 153.072 1492.61L112.142 1311.31L52.6418 966.314C42.4041 884.071 65.4145 801.143 116.567 735.935Z" fill="url(#paint6_linear_85_6)"/>
<path d="M494.146 477.818L484.251 376.734C478.686 319.879 492.958 262.849 524.647 215.317C561.393 171.54 614.351 144.573 671.369 140.604L740.466 135.794C754.563 134.812 768.713 134.882 782.8 136.002L789.643 136.546C1009.21 153.999 1225.93 197.394 1435.28 265.826C1465.8 275.802 1495.4 288.393 1523.76 303.46L1635.26 362.718C1750.18 423.785 1835.19 529.104 1870.64 654.314L1871.34 662.191C1881.23 774.023 1851.42 885.766 1787.15 977.815C1642.62 893.428 1488.89 825.916 1328.96 776.608L1143.15 719.317L1004.75 684.441C846.002 644.438 683.982 618.788 520.643 607.801L494.146 477.818Z" fill="url(#paint7_linear_85_6)"/>
<path d="M2201 745H2326V1294.5H2573.5V1405H2201V745ZM2998.54 1405V1333.5C2995.54 1340.83 2987.87 1351.17 2975.54 1364.5C2963.21 1377.83 2946.54 1390 2925.54 1401C2904.87 1411.67 2880.54 1417 2852.54 1417C2813.21 1417 2778.37 1407.67 2748.04 1389C2717.71 1370 2693.87 1344.17 2676.54 1311.5C2659.54 1278.5 2651.04 1241.33 2651.04 1200C2651.04 1158.67 2659.54 1121.67 2676.54 1089C2693.87 1056 2717.71 1030 2748.04 1011C2778.37 992 2813.21 982.5 2852.54 982.5C2879.87 982.5 2903.54 987.167 2923.54 996.5C2943.87 1005.5 2960.21 1016.17 2972.54 1028.5C2985.21 1040.5 2993.37 1051.33 2997.04 1061V994.5H3123.04V1405H2998.54ZM2775.54 1200C2775.54 1223 2780.71 1243.33 2791.04 1261C2801.37 1278.33 2815.04 1291.83 2832.04 1301.5C2849.04 1311.17 2867.54 1316 2887.54 1316C2908.54 1316 2927.21 1311.17 2943.54 1301.5C2959.87 1291.5 2972.71 1277.83 2982.04 1260.5C2991.71 1242.83 2996.54 1222.67 2996.54 1200C2996.54 1177.33 2991.71 1157.33 2982.04 1140C2972.71 1122.33 2959.87 1108.5 2943.54 1098.5C2927.21 1088.5 2908.54 1083.5 2887.54 1083.5C2867.54 1083.5 2849.04 1088.5 2832.04 1098.5C2815.04 1108.17 2801.37 1121.83 2791.04 1139.5C2780.71 1156.83 2775.54 1177 2775.54 1200ZM3225.3 1405V717H3352.3V1061C3354.96 1051.33 3362.8 1040.33 3375.8 1028C3388.8 1015.67 3405.96 1005 3427.3 996C3448.96 987 3473.46 982.5 3500.8 982.5C3540.13 982.5 3574.46 992 3603.8 1011C3633.46 1030 3656.46 1056 3672.8 1089C3689.46 1121.67 3697.8 1158.67 3697.8 1200C3697.8 1241.33 3689.46 1278.5 3672.8 1311.5C3656.46 1344.17 3633.46 1370 3603.8 1389C3574.46 1407.67 3540.13 1417 3500.8 1417C3476.46 1417 3453.8 1412.5 3432.8 1403.5C3412.13 1394.5 3394.63 1383.5 3380.3 1370.5C3366.3 1357.5 3356.46 1345.17 3350.8 1333.5V1405H3225.3ZM3572.8 1200C3572.8 1177 3567.96 1156.83 3558.3 1139.5C3548.63 1121.83 3535.63 1108.17 3519.3 1098.5C3502.96 1088.5 3484.8 1083.5 3464.8 1083.5C3443.8 1083.5 3424.8 1088.5 3407.8 1098.5C3390.8 1108.5 3377.3 1122.33 3367.3 1140C3357.3 1157.33 3352.3 1177.33 3352.3 1200C3352.3 1222.67 3357.3 1242.83 3367.3 1260.5C3377.3 1277.83 3390.8 1291.5 3407.8 1301.5C3424.8 1311.17 3443.8 1316 3464.8 1316C3484.8 1316 3502.96 1311.17 3519.3 1301.5C3535.63 1291.83 3548.63 1278.33 3558.3 1261C3567.96 1243.33 3572.8 1223 3572.8 1200Z" fill="white"/>
<path d="M3870.72 1417C3848.39 1417 3829.22 1409 3813.22 1393C3797.22 1377 3789.22 1357.83 3789.22 1335.5C3789.22 1312.5 3797.22 1293 3813.22 1277C3829.22 1261 3848.39 1253 3870.72 1253C3893.72 1253 3913.05 1261 3928.72 1277C3944.72 1293 3952.72 1312.5 3952.72 1335.5C3952.72 1357.83 3944.72 1377 3928.72 1393C3913.05 1409 3893.72 1417 3870.72 1417Z" fill="url(#paint8_linear_85_6)"/>
<defs>
<linearGradient id="paint0_linear_85_6" x1="1176.76" y1="1285.89" x2="892.573" y2="898.883" gradientUnits="userSpaceOnUse">
<stop stop-color="#7C96F5"/>
<stop offset="0.427832" stop-color="#61E1CA"/>
<stop offset="0.96" stop-color="#965DD6"/>
</linearGradient>
<linearGradient id="paint1_linear_85_6" x1="852.999" y1="2019.5" x2="1984" y2="1141" gradientUnits="userSpaceOnUse">
<stop stop-color="#A662E6"/>
<stop offset="1" stop-color="#5ABEFF"/>
</linearGradient>
<linearGradient id="paint2_linear_85_6" x1="436" y1="346.5" x2="591.5" y2="1804.5" gradientUnits="userSpaceOnUse">
<stop stop-color="#A661E2"/>
<stop offset="1" stop-color="#3E4190"/>
</linearGradient>
<linearGradient id="paint3_linear_85_6" x1="1871.5" y1="673.5" x2="470" y2="318.5" gradientUnits="userSpaceOnUse">
<stop stop-color="#5DE7C8"/>
<stop offset="1" stop-color="#A661E2"/>
</linearGradient>
<linearGradient id="paint4_linear_85_6" x1="1176.76" y1="1285.89" x2="892.573" y2="898.883" gradientUnits="userSpaceOnUse">
<stop stop-color="#7C96F5"/>
<stop offset="0.427832" stop-color="#61E1CA"/>
<stop offset="0.96" stop-color="#965DD6"/>
</linearGradient>
<linearGradient id="paint5_linear_85_6" x1="852.999" y1="2019.5" x2="1984" y2="1141" gradientUnits="userSpaceOnUse">
<stop stop-color="#A662E6"/>
<stop offset="1" stop-color="#5ABEFF"/>
</linearGradient>
<linearGradient id="paint6_linear_85_6" x1="436" y1="346.5" x2="591.5" y2="1804.5" gradientUnits="userSpaceOnUse">
<stop stop-color="#A661E2"/>
<stop offset="1" stop-color="#3E4190"/>
</linearGradient>
<linearGradient id="paint7_linear_85_6" x1="1871.5" y1="673.5" x2="470" y2="318.5" gradientUnits="userSpaceOnUse">
<stop stop-color="#5DE7C8"/>
<stop offset="1" stop-color="#A661E2"/>
</linearGradient>
<linearGradient id="paint8_linear_85_6" x1="3147.5" y1="705" x2="3147.5" y2="1520" gradientUnits="userSpaceOnUse">
<stop stop-color="#7B9BF3"/>
<stop offset="0.5" stop-color="#67D3CC"/>
<stop offset="1" stop-color="#9366D6"/>
</linearGradient>
</defs>
</svg>
