<svg width="5198" height="2292" viewBox="0 0 5198 2292" fill="none" xmlns="http://www.w3.org/2000/svg">
<path d="M973.149 2105.31L402.651 1820.33C502.138 1848.28 607.886 1844.33 705.011 1809.04L760.647 1788.82L852.49 1747.88C874.234 1738.18 895.257 1726.95 915.4 1714.26L1189.15 1541.82L1432.77 1363.68C1452.66 1349.13 1471.46 1333.13 1488.99 1315.81L1660.07 1146.83C1663.45 1143.49 1666.59 1139.92 1669.46 1136.13L1771.03 1002.28C1841.85 908.947 1877.65 793.705 1872.17 676.669L1871.15 654.817L2037.65 1291.32L2037.65 1328.35C2037.65 1419.9 2012.51 1509.7 1964.98 1587.94L1917.37 1666.32C1788.74 1827.17 1630.58 1961.99 1451.39 2063.53L1393.52 2096.32C1382.96 2102.3 1371.87 2107.29 1360.39 2111.23L1298.12 2132.57C1190.76 2169.37 1072.88 2159.48 973.149 2105.31Z" fill="url(#paint0_linear_64_55)"/>
<path d="M116.567 735.935L526.138 213.81C493.838 260.329 478.906 316.716 483.952 373.124L492.647 470.316L518.647 607.816L616.638 1013.31L683.138 1262.81L815.638 1763.81L811.747 1765.87C688.826 1831.14 547.082 1851.8 410.646 1824.31C279.803 1757.46 185.431 1635.93 153.072 1492.61L112.142 1311.31L52.6418 966.314C42.4041 884.071 65.4145 801.143 116.567 735.935Z" fill="url(#paint1_linear_64_55)"/>
<path d="M494.146 477.818L484.251 376.734C478.686 319.879 492.958 262.849 524.647 215.317C561.393 171.54 614.351 144.573 671.369 140.604L740.466 135.794C754.563 134.812 768.713 134.882 782.8 136.002L789.643 136.546C1009.21 153.999 1225.93 197.394 1435.28 265.826C1465.8 275.802 1495.4 288.393 1523.76 303.46L1635.26 362.718C1750.18 423.785 1835.19 529.104 1870.64 654.314L1871.34 662.191C1881.23 774.023 1851.42 885.766 1787.15 977.815C1642.62 893.428 1488.89 825.916 1328.96 776.608L1143.15 719.317L1004.75 684.441C846.002 644.438 683.982 618.788 520.643 607.801L494.146 477.818Z" fill="url(#paint2_linear_64_55)"/>
<path d="M3286.5 1456H3349V1730.75H3472.75V1786H3286.5V1456ZM3685.27 1786V1750.25C3683.77 1753.92 3679.94 1759.08 3673.77 1765.75C3667.6 1772.42 3659.27 1778.5 3648.77 1784C3638.44 1789.33 3626.27 1792 3612.27 1792C3592.6 1792 3575.19 1787.33 3560.02 1778C3544.85 1768.5 3532.94 1755.58 3524.27 1739.25C3515.77 1722.75 3511.52 1704.17 3511.52 1683.5C3511.52 1662.83 3515.77 1644.33 3524.27 1628C3532.94 1611.5 3544.85 1598.5 3560.02 1589C3575.19 1579.5 3592.6 1574.75 3612.27 1574.75C3625.94 1574.75 3637.77 1577.08 3647.77 1581.75C3657.94 1586.25 3666.1 1591.58 3672.27 1597.75C3678.6 1603.75 3682.69 1609.17 3684.52 1614V1580.75H3747.52V1786H3685.27ZM3573.77 1683.5C3573.77 1695 3576.35 1705.17 3581.52 1714C3586.69 1722.67 3593.52 1729.42 3602.02 1734.25C3610.52 1739.08 3619.77 1741.5 3629.77 1741.5C3640.27 1741.5 3649.6 1739.08 3657.77 1734.25C3665.94 1729.25 3672.35 1722.42 3677.02 1713.75C3681.85 1704.92 3684.27 1694.83 3684.27 1683.5C3684.27 1672.17 3681.85 1662.17 3677.02 1653.5C3672.35 1644.67 3665.94 1637.75 3657.77 1632.75C3649.6 1627.75 3640.27 1625.25 3629.77 1625.25C3619.77 1625.25 3610.52 1627.75 3602.02 1632.75C3593.52 1637.58 3586.69 1644.42 3581.52 1653.25C3576.35 1661.92 3573.77 1672 3573.77 1683.5ZM3798.65 1786V1442H3862.15V1614C3863.48 1609.17 3867.4 1603.67 3873.9 1597.5C3880.4 1591.33 3888.98 1586 3899.65 1581.5C3910.48 1577 3922.73 1574.75 3936.4 1574.75C3956.07 1574.75 3973.23 1579.5 3987.9 1589C4002.73 1598.5 4014.23 1611.5 4022.4 1628C4030.73 1644.33 4034.9 1662.83 4034.9 1683.5C4034.9 1704.17 4030.73 1722.75 4022.4 1739.25C4014.23 1755.58 4002.73 1768.5 3987.9 1778C3973.23 1787.33 3956.07 1792 3936.4 1792C3924.23 1792 3912.9 1789.75 3902.4 1785.25C3892.07 1780.75 3883.32 1775.25 3876.15 1768.75C3869.15 1762.25 3864.23 1756.08 3861.4 1750.25V1786H3798.65ZM3972.4 1683.5C3972.4 1672 3969.98 1661.92 3965.15 1653.25C3960.32 1644.42 3953.82 1637.58 3945.65 1632.75C3937.48 1627.75 3928.4 1625.25 3918.4 1625.25C3907.9 1625.25 3898.4 1627.75 3889.9 1632.75C3881.4 1637.75 3874.65 1644.67 3869.65 1653.5C3864.65 1662.17 3862.15 1672.17 3862.15 1683.5C3862.15 1694.83 3864.65 1704.92 3869.65 1713.75C3874.65 1722.42 3881.4 1729.25 3889.9 1734.25C3898.4 1739.08 3907.9 1741.5 3918.4 1741.5C3928.4 1741.5 3937.48 1739.08 3945.65 1734.25C3953.82 1729.42 3960.32 1722.67 3965.15 1714C3969.98 1705.17 3972.4 1695 3972.4 1683.5Z" fill="white"/>
<path d="M4121.36 1792C4110.19 1792 4100.61 1788 4092.61 1780C4084.61 1772 4080.61 1762.42 4080.61 1751.25C4080.61 1739.75 4084.61 1730 4092.61 1722C4100.61 1714 4110.19 1710 4121.36 1710C4132.86 1710 4142.53 1714 4150.36 1722C4158.36 1730 4162.36 1739.75 4162.36 1751.25C4162.36 1762.42 4158.36 1772 4150.36 1780C4142.53 1788 4132.86 1792 4121.36 1792Z" fill="url(#paint3_linear_64_55)"/>
<path d="M2205 685H2330V1345H2205V685ZM2716.84 922.5C2744.84 922.5 2772.17 928.333 2798.84 940C2825.5 951.333 2847.34 969.5 2864.34 994.5C2881.67 1019.5 2890.34 1052.17 2890.34 1092.5V1345H2762.84V1114.5C2762.84 1080.83 2754.84 1055.83 2738.84 1039.5C2723.17 1023.17 2702.5 1015 2676.84 1015C2660.17 1015 2644.17 1019.67 2628.84 1029C2613.84 1038 2601.5 1050.67 2591.84 1067C2582.5 1083 2577.84 1101.33 2577.84 1122V1345H2450.84V934.5H2577.84V1000C2581.5 988.667 2589.84 977 2602.84 965C2615.84 953 2632.34 943 2652.34 935C2672.34 926.667 2693.84 922.5 2716.84 922.5ZM2955.02 934.5H3029.02V823C3029.02 782.333 3037.02 749 3053.02 723C3069.02 696.667 3089.68 677.167 3115.02 664.5C3140.35 651.5 3166.52 645 3193.52 645C3226.52 645 3251.85 649.5 3269.52 658.5C3287.18 667.5 3298.02 674 3302.02 678L3253.02 772C3251.35 769.667 3246.68 766 3239.02 761C3231.68 755.667 3221.85 753 3209.52 753C3200.85 753 3192.35 755.167 3184.02 759.5C3175.68 763.833 3168.85 771.833 3163.52 783.5C3158.18 795.167 3155.52 812.333 3155.52 835V934.5H3263.02V1040H3155.52V1345H3029.02V1040H2955.02V934.5ZM3339.02 1345V934.5H3465.52V1345H3339.02ZM3404.02 828.5C3383.02 828.5 3365.18 821.167 3350.52 806.5C3336.18 791.833 3329.02 774.333 3329.02 754C3329.02 733.667 3336.35 716 3351.02 701C3365.68 686 3383.35 678.5 3404.02 678.5C3417.68 678.5 3430.18 682 3441.52 689C3452.85 695.667 3462.02 704.667 3469.02 716C3476.02 727.333 3479.52 740 3479.52 754C3479.52 774.333 3472.02 791.833 3457.02 806.5C3442.35 821.167 3424.68 828.5 3404.02 828.5ZM3843.79 922.5C3871.79 922.5 3899.12 928.333 3925.79 940C3952.46 951.333 3974.29 969.5 3991.29 994.5C4008.62 1019.5 4017.29 1052.17 4017.29 1092.5V1345H3889.79V1114.5C3889.79 1080.83 3881.79 1055.83 3865.79 1039.5C3850.12 1023.17 3829.46 1015 3803.79 1015C3787.12 1015 3771.12 1019.67 3755.79 1029C3740.79 1038 3728.46 1050.67 3718.79 1067C3709.46 1083 3704.79 1101.33 3704.79 1122V1345H3577.79V934.5H3704.79V1000C3708.46 988.667 3716.79 977 3729.79 965C3742.79 953 3759.29 943 3779.29 935C3799.29 926.667 3820.79 922.5 3843.79 922.5ZM4122.97 1345V934.5H4249.47V1345H4122.97ZM4187.97 828.5C4166.97 828.5 4149.14 821.167 4134.47 806.5C4120.14 791.833 4112.97 774.333 4112.97 754C4112.97 733.667 4120.3 716 4134.97 701C4149.64 686 4167.3 678.5 4187.97 678.5C4201.64 678.5 4214.14 682 4225.47 689C4236.8 695.667 4245.97 704.667 4252.97 716C4259.97 727.333 4263.47 740 4263.47 754C4263.47 774.333 4255.97 791.833 4240.97 806.5C4226.3 821.167 4208.64 828.5 4187.97 828.5ZM4329.99 934.5H4403.99V766H4529.99V934.5H4626.99V1040H4529.99V1188.5C4529.99 1208.17 4533.16 1223.5 4539.49 1234.5C4545.83 1245.17 4555.83 1250.5 4569.49 1250.5C4579.83 1250.5 4588.33 1248.5 4594.99 1244.5C4601.66 1240.17 4605.66 1237.17 4606.99 1235.5L4651.99 1326.5C4649.99 1328.5 4643.49 1332 4632.49 1337C4621.83 1342 4607.99 1346.5 4590.99 1350.5C4574.33 1354.83 4555.49 1357 4534.49 1357C4496.83 1357 4465.66 1346.17 4440.99 1324.5C4416.33 1302.5 4403.99 1268.5 4403.99 1222.5V1040H4329.99V934.5ZM4908.58 1233.5L5030.08 934.5H5155.58L4875.08 1553H4747.58L4842.08 1345L4671.58 934.5H4798.58L4908.58 1233.5Z" fill="white"/>
<defs>
<linearGradient id="paint0_linear_64_55" x1="853" y1="2019.5" x2="1984" y2="1141" gradientUnits="userSpaceOnUse">
<stop stop-color="#A662E6"/>
<stop offset="1" stop-color="#5ABEFF"/>
</linearGradient>
<linearGradient id="paint1_linear_64_55" x1="436" y1="346.5" x2="591.5" y2="1804.5" gradientUnits="userSpaceOnUse">
<stop stop-color="#A661E2"/>
<stop offset="1" stop-color="#3E4190"/>
</linearGradient>
<linearGradient id="paint2_linear_64_55" x1="1871.5" y1="673.5" x2="470" y2="318.5" gradientUnits="userSpaceOnUse">
<stop stop-color="#5DE7C8"/>
<stop offset="1" stop-color="#A661E2"/>
</linearGradient>
<linearGradient id="paint3_linear_64_55" x1="3762.5" y1="1436" x2="3762.5" y2="1896" gradientUnits="userSpaceOnUse">
<stop stop-color="#7B9BF3"/>
<stop offset="0.5" stop-color="#67D3CC"/>
<stop offset="1" stop-color="#9366D6"/>
</linearGradient>
</defs>
</svg>
