<svg width="2887" height="3043" viewBox="0 0 2887 3043" fill="none" xmlns="http://www.w3.org/2000/svg">
<circle cx="1496.5" cy="1652.5" r="1390.5" fill="white"/>
<path d="M1218.47 2416.75C1175.33 2422.54 1136.06 2411.79 1100.66 2384.49C1064.94 2359.04 1043.8 2324.2 1037.24 2279.96L984.919 1908.86C967.863 1793.84 983.031 1680.67 1030.42 1569.36C1053.57 1514.09 1086.22 1461.92 1128.38 1412.87L912.715 1104.87C887.478 1068.83 878.242 1028.91 885.008 985.103C892.539 942.393 914.872 908.037 952.007 882.035C988.05 856.797 1027.97 847.562 1071.77 854.328C1115.25 862.951 1149.61 885.284 1174.84 921.327L1390.51 1229.33C1450.69 1208.35 1510.33 1195.89 1569.42 1191.95C1688.38 1185.16 1800.45 1209.23 1905.65 1264.16L2234.84 1441.39C2274.16 1462.69 2300.22 1494.09 2313.01 1535.59C2326.56 1578.19 2322.68 1619.15 2301.39 1658.48C2281.19 1697.04 2249.95 1722.17 2207.68 1733.86C2165.08 1747.41 2124.5 1744.09 2085.94 1723.88L1755.11 1547.79C1702.68 1519.4 1647.46 1506.79 1589.46 1509.97C1532.22 1514.24 1479.57 1533.2 1431.52 1566.85C1382.37 1601.26 1346 1644.63 1322.41 1696.95C1299.59 1750.37 1292.55 1806.57 1301.3 1865.56L1353.62 2236.66C1359.41 2279.81 1349.21 2318.69 1323 2353.32C1296.46 2389.81 1261.62 2410.95 1218.47 2416.75Z" fill="url(#paint0_linear_114_5)"/>
<defs>
<linearGradient id="paint0_linear_114_5" x1="1791.9" y1="1937.66" x2="978.22" y2="832.539" gradientUnits="userSpaceOnUse">
<stop stop-color="#7C96F5"/>
<stop offset="0.427832" stop-color="#61E1CA"/>
<stop offset="0.96" stop-color="#965DD6"/>
</linearGradient>
</defs>
</svg>
