<svg width="256" height="256" viewBox="0 0 256 256" fill="none" xmlns="http://www.w3.org/2000/svg">
<path d="M115.742 235.178L47.8894 203.339C59.7531 206.47 72.2212 206.048 83.715 202.124L90.4676 199.819L105.275 193.618L141.432 172.225L146.844 168.507C164.898 156.106 182.009 142.413 198.044 127.536L209.511 113.341C218.642 102.038 223.273 87.7485 222.545 73.1285L242.348 144.239C242.348 157.154 238.648 169.735 231.679 180.51L228.042 186.133C212.736 204.113 194.153 219.049 173.237 230.181L165.696 234.195C164.468 234.849 163.182 235.393 161.854 235.82L154.008 238.347C141.429 242.397 127.654 241.256 115.742 235.178Z" fill="url(#paint0_linear_193_42)"/>
<path d="M13.6683 82.4447L62.5763 23.8788C58.7482 29.0575 56.9669 35.4608 57.5758 41.8543L58.593 52.5356L61.6853 67.8971L73.3398 113.199L81.249 141.073L97.0079 197.044C82.1429 204.459 65.1199 206.884 48.8403 203.804C33.293 196.342 21.9422 182.291 17.9101 165.516L13.3376 146.492L6.26096 107.948C5.04877 98.8012 7.73626 89.548 13.6683 82.4447Z" fill="url(#paint1_linear_193_42)"/>
<path d="M58.771 53.3817L57.5915 42.0632C56.9334 35.7482 58.6418 29.3484 62.3986 24.0552C66.7705 19.1627 72.9232 16.1611 79.4551 15.734L88.0407 15.1726C89.735 15.0618 91.4319 15.0694 93.1183 15.1953L93.841 15.2493C120.014 17.2035 145.796 22.0499 170.702 29.697C174.335 30.8124 177.859 32.2212 181.241 33.9093L195.232 40.8934C208.445 47.489 218.262 59.0903 222.485 73.0998L222.571 74.0099C223.741 86.4428 220.173 98.9919 212.554 109.241C195.36 99.8106 177.115 92.2813 158.145 86.7871L135.96 80.362L119.436 76.4507C100.594 71.9907 81.3529 69.1312 61.9224 67.9035L58.771 53.3817Z" fill="url(#paint2_linear_193_42)"/>
<defs>
<linearGradient id="paint0_linear_193_42" x1="101.452" y1="225.591" x2="229.54" y2="119.673" gradientUnits="userSpaceOnUse">
<stop stop-color="#A662E6"/>
<stop offset="1" stop-color="#5ABEFF"/>
</linearGradient>
<linearGradient id="paint1_linear_193_42" x1="51.8557" y1="38.7029" x2="68.1959" y2="201.806" gradientUnits="userSpaceOnUse">
<stop stop-color="#A661E2"/>
<stop offset="1" stop-color="#3E4190"/>
</linearGradient>
<linearGradient id="paint2_linear_193_42" x1="222.587" y1="75.2433" x2="57.2285" y2="30.653" gradientUnits="userSpaceOnUse">
<stop stop-color="#5DE7C8"/>
<stop offset="1" stop-color="#A661E2"/>
</linearGradient>
</defs>
</svg>
